<svg id="Layer_1" data-name="Layer 1" xmlns="http://www.w3.org/2000/svg" viewBox="0 0 399.69 479.08"><defs><style>.cls-1,.cls-2,.cls-3{fill:#07374f;}.cls-2{font-size:587.14px;}.cls-2,.cls-3,.cls-4{font-family:ScriptMTBold, Script MT Bold;}.cls-3,.cls-4{font-size:502.3px;}.cls-4{fill:#136191;}</style></defs><path class="cls-1" d="M225.27,450.57c12.25-.62,24.49-.94,36.74-1.16,6.12-.14,12.24-.17,18.37-.25l18.36-.09,18.37.08c6.12.09,12.25.11,18.37.25,12.24.22,24.49.55,36.73,1.17-12.24.63-24.49.95-36.73,1.17-6.12.14-12.25.17-18.37.25l-18.37.08L280.38,452c-6.13-.08-12.25-.11-18.37-.25C249.76,451.52,237.52,451.19,225.27,450.57Z"/><text class="cls-2" transform="translate(-5.15 420.73) scale(1.08 1)">S</text><text class="cls-3" transform="translate(242.23 411.26)">t</text><text class="cls-4" transform="translate(233.95 423.67)">t</text></svg>